<svg width="68" height="84" viewBox="0 0 68 84" fill="none" xmlns="http://www.w3.org/2000/svg">
<path d="M16 8C16 12.4183 12.4183 16 8 16C3.58172 16 0 12.4183 0 8C0 3.58172 3.58172 0 8 0C12.4183 0 16 3.58172 16 8ZM3.2 8C3.2 10.651 5.34903 12.8 8 12.8C10.651 12.8 12.8 10.651 12.8 8C12.8 5.34903 10.651 3.2 8 3.2C5.34903 3.2 3.2 5.34903 3.2 8Z" fill="white"/>
<path d="M16 34C16 38.4183 12.4183 42 8 42C3.58172 42 0 38.4183 0 34C0 29.5817 3.58172 26 8 26C12.4183 26 16 29.5817 16 34ZM3.2 34C3.2 36.651 5.34903 38.8 8 38.8C10.651 38.8 12.8 36.651 12.8 34C12.8 31.349 10.651 29.2 8 29.2C5.34903 29.2 3.2 31.349 3.2 34Z" fill="white"/>
<path d="M16 60C16 64.4183 12.4183 68 8 68C3.58172 68 0 64.4183 0 60C0 55.5817 3.58172 52 8 52C12.4183 52 16 55.5817 16 60ZM3.2 60C3.2 62.651 5.34903 64.8 8 64.8C10.651 64.8 12.8 62.651 12.8 60C12.8 57.349 10.651 55.2 8 55.2C5.34903 55.2 3.2 57.349 3.2 60Z" fill="white"/>
<path d="M42 8C42 12.4183 38.4183 16 34 16C29.5817 16 26 12.4183 26 8C26 3.58172 29.5817 0 34 0C38.4183 0 42 3.58172 42 8ZM29.2 8C29.2 10.651 31.349 12.8 34 12.8C36.651 12.8 38.8 10.651 38.8 8C38.8 5.34903 36.651 3.2 34 3.2C31.349 3.2 29.2 5.34903 29.2 8Z" fill="white"/>
<path d="M42 34C42 38.4183 38.4183 42 34 42C29.5817 42 26 38.4183 26 34C26 29.5817 29.5817 26 34 26C38.4183 26 42 29.5817 42 34ZM29.2 34C29.2 36.651 31.349 38.8 34 38.8C36.651 38.8 38.8 36.651 38.8 34C38.8 31.349 36.651 29.2 34 29.2C31.349 29.2 29.2 31.349 29.2 34Z" fill="white"/>
<path d="M42 60C42 64.4183 38.4183 68 34 68C29.5817 68 26 64.4183 26 60C26 55.5817 29.5817 52 34 52C38.4183 52 42 55.5817 42 60ZM29.2 60C29.2 62.651 31.349 64.8 34 64.8C36.651 64.8 38.8 62.651 38.8 60C38.8 57.349 36.651 55.2 34 55.2C31.349 55.2 29.2 57.349 29.2 60Z" fill="white"/>
<path d="M68 8C68 12.4183 64.4183 16 60 16C55.5817 16 52 12.4183 52 8C52 3.58172 55.5817 0 60 0C64.4183 0 68 3.58172 68 8ZM55.2 8C55.2 10.651 57.349 12.8 60 12.8C62.651 12.8 64.8 10.651 64.8 8C64.8 5.34903 62.651 3.2 60 3.2C57.349 3.2 55.2 5.34903 55.2 8Z" fill="white"/>
<path d="M68 34C68 38.4183 64.4183 42 60 42C55.5817 42 52 38.4183 52 34C52 29.5817 55.5817 26 60 26C64.4183 26 68 29.5817 68 34ZM55.2 34C55.2 36.651 57.349 38.8 60 38.8C62.651 38.8 64.8 36.651 64.8 34C64.8 31.349 62.651 29.2 60 29.2C57.349 29.2 55.2 31.349 55.2 34Z" fill="white"/>
<path d="M68 60C68 64.4183 64.4183 68 60 68C55.5817 68 52 64.4183 52 60C52 55.5817 55.5817 52 60 52C64.4183 52 68 55.5817 68 60ZM55.2 60C55.2 62.651 57.349 64.8 60 64.8C62.651 64.8 64.8 62.651 64.8 60C64.8 57.349 62.651 55.2 60 55.2C57.349 55.2 55.2 57.349 55.2 60Z" fill="white"/>
<line x1="12.9095" y1="29.9701" x2="29.9095" y2="11.9701" stroke="white" stroke-width="3"/>
<line x1="38.0607" y1="37.9393" x2="55.5678" y2="55.4465" stroke="white" stroke-width="3"/>
<line x1="13" y1="60.5" x2="28" y2="60.5" stroke="white" stroke-width="3"/>
<path d="M3.89387 80V79.4247L6.05438 77.0597C6.30793 76.7827 6.51673 76.5419 6.6808 76.3374C6.84486 76.1307 6.96631 75.9368 7.04514 75.7557C7.12611 75.5724 7.16659 75.3807 7.16659 75.1804C7.16659 74.9503 7.1112 74.7511 7.0004 74.5827C6.89173 74.4144 6.74259 74.2844 6.55296 74.1928C6.36333 74.1012 6.15026 74.0554 5.91375 74.0554C5.66233 74.0554 5.44287 74.1076 5.25537 74.212C5.07 74.3143 4.92618 74.4581 4.82391 74.6435C4.72377 74.8288 4.6737 75.0462 4.6737 75.2955H3.91943C3.91943 74.9119 4.00786 74.5753 4.1847 74.2855C4.36155 73.9957 4.60232 73.7699 4.907 73.608C5.21382 73.446 5.55793 73.3651 5.93932 73.3651C6.32284 73.3651 6.66269 73.446 6.95885 73.608C7.25502 73.7699 7.48726 73.9883 7.65558 74.2631C7.82391 74.538 7.90807 74.8438 7.90807 75.1804C7.90807 75.4212 7.86439 75.6566 7.77703 75.8867C7.69181 76.1147 7.54266 76.3693 7.32959 76.6506C7.11865 76.9297 6.82568 77.2706 6.45068 77.6733L4.98051 79.2457V79.2969H8.02313V80H3.89387ZM11.3885 80.0895C11.0135 80.0895 10.6758 80.0149 10.3754 79.8658C10.075 79.7166 9.83421 79.5121 9.6531 79.2521C9.47199 78.9922 9.37291 78.696 9.35587 78.3636H10.1229C10.1527 78.6598 10.287 78.9048 10.5256 79.0987C10.7664 79.2905 11.054 79.3864 11.3885 79.3864C11.657 79.3864 11.8956 79.3235 12.1044 79.1978C12.3154 79.0721 12.4805 78.8995 12.5998 78.68C12.7213 78.4585 12.782 78.2081 12.782 77.929C12.782 77.6435 12.7191 77.3888 12.5934 77.1651C12.4699 76.9393 12.2994 76.7614 12.0821 76.6314C11.8647 76.5014 11.6165 76.4354 11.3374 76.4332C11.1371 76.4311 10.9315 76.462 10.7206 76.5259C10.5096 76.5877 10.336 76.6676 10.1996 76.7656L9.45814 76.6761L9.85445 73.4545H13.255V74.1577H10.5192L10.2891 76.0881H10.3275C10.4617 75.9815 10.63 75.8931 10.8324 75.8228C11.0348 75.7525 11.2458 75.7173 11.4652 75.7173C11.8658 75.7173 12.2227 75.8132 12.5359 76.005C12.8513 76.1946 13.0984 76.4545 13.2774 76.7848C13.4585 77.1151 13.549 77.4922 13.549 77.9162C13.549 78.3338 13.4553 78.7067 13.2678 79.0348C13.0824 79.3608 12.8267 79.6186 12.5008 79.8082C12.1748 79.9957 11.804 80.0895 11.3885 80.0895ZM14.6397 75.4105V75.0653C14.6397 74.7628 14.7015 74.4943 14.8251 74.2599C14.9486 74.0256 15.1244 73.8413 15.3524 73.707C15.5804 73.5728 15.8499 73.5057 16.161 73.5057C16.634 73.5057 17.0058 73.6527 17.2764 73.9467C17.547 74.2386 17.6823 74.6115 17.6823 75.0653V75.4105C17.6823 75.7131 17.6216 75.9805 17.5001 76.2127C17.3787 76.445 17.205 76.6271 16.9792 76.7592C16.7533 76.8913 16.4849 76.9574 16.1738 76.9574C15.7008 76.9574 15.3268 76.8136 15.052 76.5259C14.7771 76.2362 14.6397 75.8643 14.6397 75.4105ZM15.4067 75.0653V75.4105C15.4067 75.6726 15.4707 75.8899 15.5985 76.0625C15.7263 76.233 15.9181 76.3182 16.1738 76.3182C16.4231 76.3182 16.6084 76.233 16.7299 76.0625C16.8535 75.8899 16.9153 75.6726 16.9153 75.4105V75.0653C16.9153 74.8097 16.8535 74.5945 16.7299 74.4197C16.6063 74.245 16.4167 74.1577 16.161 74.1577C15.9117 74.1577 15.7231 74.245 15.5953 74.4197C15.4696 74.5945 15.4067 74.8097 15.4067 75.0653ZM25.0875 75.0909C25.0491 74.767 24.8936 74.5156 24.6209 74.3366C24.3481 74.1577 24.0136 74.0682 23.6173 74.0682C23.3275 74.0682 23.074 74.1151 22.8567 74.2088C22.6415 74.3026 22.4731 74.4315 22.3517 74.5955C22.2324 74.7596 22.1727 74.946 22.1727 75.1548C22.1727 75.3295 22.2143 75.4798 22.2974 75.6055C22.3826 75.729 22.4913 75.8324 22.6234 75.9155C22.7555 75.9964 22.894 76.0636 23.0388 76.1168C23.1837 76.168 23.3169 76.2095 23.4383 76.2415L24.1031 76.4205C24.2736 76.4652 24.4632 76.527 24.672 76.6058C24.8829 76.6847 25.0843 76.7923 25.2761 76.9286C25.4699 77.0629 25.6297 77.2354 25.7555 77.4464C25.8812 77.6573 25.944 77.9162 25.944 78.223C25.944 78.5767 25.8513 78.8963 25.666 79.1818C25.4827 79.4673 25.2143 79.6942 24.8606 79.8626C24.509 80.0309 24.0818 80.1151 23.579 80.1151C23.1102 80.1151 22.7043 80.0394 22.3613 79.8881C22.0204 79.7369 21.7519 79.5259 21.5559 79.2553C21.362 78.9847 21.2523 78.6705 21.2267 78.3125H22.0449C22.0662 78.5597 22.1493 78.7642 22.2942 78.9261C22.4412 79.0859 22.6266 79.2053 22.8503 79.2841C23.0761 79.3608 23.319 79.3991 23.579 79.3991C23.8815 79.3991 24.1532 79.3501 24.394 79.2521C24.6347 79.152 24.8254 79.0135 24.966 78.8366C25.1067 78.6577 25.177 78.4489 25.177 78.2102C25.177 77.9929 25.1163 77.8161 24.9948 77.6797C24.8734 77.5433 24.7136 77.4325 24.5154 77.3473C24.3172 77.2621 24.1031 77.1875 23.873 77.1236L23.0676 76.8935C22.5562 76.7464 22.1514 76.5366 21.8531 76.2638C21.5548 75.9911 21.4057 75.6342 21.4057 75.1932C21.4057 74.8267 21.5047 74.5071 21.7029 74.2344C21.9032 73.9595 22.1717 73.7464 22.5083 73.5952C22.8471 73.4418 23.2253 73.3651 23.6429 73.3651C24.0648 73.3651 24.4398 73.4407 24.7679 73.592C25.096 73.7411 25.356 73.9457 25.5477 74.2056C25.7416 74.4656 25.8439 74.7607 25.8545 75.0909H25.0875ZM28.0398 73.4545V80H27.2472V73.4545H28.0398ZM29.629 73.4545H30.5751L32.7995 78.8878H32.8762L35.1006 73.4545H36.0467V80H35.3052V75.027H35.2413L33.1958 80H32.4799L30.4344 75.027H30.3705V80H29.629V73.4545ZM37.2779 74.1577V73.4545H42.187V74.1577H40.1288V80H39.3362V74.1577H37.2779ZM43.4103 80V73.4545H47.3606V74.1577H44.2029V76.3693H47.156V77.0724H44.2029V79.2969H47.4117V80H43.4103ZM48.7892 80V73.4545H52.7139V74.1577H49.5818V76.3693H52.4199V77.0724H49.5818V80H48.7892ZM53.5225 80H52.6915L55.0949 73.4545H55.9131L58.3165 80H57.4856L55.5296 74.4901H55.4785L53.5225 80ZM53.8293 77.4432H57.1788V78.1463H53.8293V77.4432ZM64.2955 75.5H63.5029C63.456 75.272 63.374 75.0717 63.2568 74.8991C63.1417 74.7266 63.0011 74.5817 62.8349 74.4645C62.6709 74.3452 62.4887 74.2557 62.2884 74.196C62.0881 74.1364 61.8793 74.1065 61.662 74.1065C61.2657 74.1065 60.9066 74.2067 60.5849 74.407C60.2653 74.6072 60.0107 74.9023 59.8211 75.2923C59.6336 75.6822 59.5398 76.1605 59.5398 76.7273C59.5398 77.294 59.6336 77.7724 59.8211 78.1623C60.0107 78.5522 60.2653 78.8473 60.5849 79.0476C60.9066 79.2479 61.2657 79.348 61.662 79.348C61.8793 79.348 62.0881 79.3182 62.2884 79.2585C62.4887 79.1989 62.6709 79.1104 62.8349 78.9933C63.0011 78.8739 63.1417 78.728 63.2568 78.5554C63.374 78.3807 63.456 78.1804 63.5029 77.9545H64.2955C64.2358 78.2891 64.1272 78.5884 63.9695 78.8526C63.8118 79.1168 63.6158 79.3416 63.3814 79.527C63.1471 79.7102 62.8839 79.8498 62.592 79.9457C62.3022 80.0415 61.9922 80.0895 61.662 80.0895C61.1037 80.0895 60.6073 79.9531 60.1726 79.6804C59.738 79.4077 59.396 79.0199 59.1467 78.517C58.8974 78.0142 58.7728 77.4176 58.7728 76.7273C58.7728 76.0369 58.8974 75.4403 59.1467 74.9375C59.396 74.4347 59.738 74.0469 60.1726 73.7741C60.6073 73.5014 61.1037 73.3651 61.662 73.3651C61.9922 73.3651 62.3022 73.413 62.592 73.5089C62.8839 73.6048 63.1471 73.7454 63.3814 73.9308C63.6158 74.114 63.8118 74.3377 63.9695 74.6019C64.1272 74.864 64.2358 75.1634 64.2955 75.5Z" fill="white"/>
</svg>
