<svg width="826" height="914" viewBox="0 0 826 914" fill="none" xmlns="http://www.w3.org/2000/svg">
<g clip-path="url(#clip0_13_4)">
<mask id="mask0_13_4" style="mask-type:luminance" maskUnits="userSpaceOnUse" x="0" y="0" width="826" height="914">
<path d="M826 0H0V914H826V0Z" fill="white"/>
</mask>
<g mask="url(#mask0_13_4)">
<g filter="url(#filter0_f_13_4)">
<path d="M235.749 117.909C248.087 105.375 240.983 78.3773 219.883 57.6073C198.783 36.8374 171.677 30.1607 159.339 42.6945C147.001 55.2283 154.104 82.2263 175.204 102.996C196.304 123.766 223.411 130.443 235.749 117.909Z" fill="url(#paint0_radial_13_4)"/>
</g>
<path d="M74 404.755C75 403.655 75 402.255 75.2 400.855C79.7 366.555 106.5 339.055 140.5 333.955C157.2 331.455 173.2 333.955 188.3 341.655C191.4 343.255 190.9 343.555 193.7 340.955C221.6 314.155 249.6 287.455 277.5 260.655C302.2 236.955 326.9 213.355 351.6 189.655C354 187.355 356.3 185.055 358.8 182.855C360.1 181.655 360.1 180.755 359 179.455C352.3 171.055 347.6 161.755 344.8 151.455C332.8 106.955 361.4 62.5552 405.6 54.3552C446 46.8552 484.6 71.1552 495.5 110.655C496.1 112.855 496.6 114.955 497 117.155C497.2 118.455 497.9 118.955 499.2 118.855C499.9 118.755 500.7 118.855 501.4 118.855C533.6 118.855 565.8 118.755 597.9 118.755C600.5 118.755 603 118.555 605.6 118.655C607.4 118.755 608 117.855 608.3 116.355C608.7 114.355 609.1 112.355 609.8 110.455C619.9 80.0552 640.5 61.2552 672.1 55.7552C713.3 48.6552 752.1 75.5552 761 116.355C761.6 119.255 762 122.255 762 125.255C762 125.755 762.1 126.355 762.5 126.755C762.5 130.755 762.5 134.855 762.5 138.855C761.9 139.355 762 139.955 762 140.655C761.1 155.255 755.7 168.155 746.9 179.655C733.4 197.455 715.4 207.855 693.2 210.255C649.6 214.855 615.9 184.955 608.4 149.455C607.5 145.255 607.5 145.255 603.2 145.255C569.3 145.255 535.4 145.355 501.6 145.355C501.5 145.355 501.4 145.355 501.3 145.355C497.1 145.355 497.2 145.355 496.1 149.355C488.7 177.455 471.2 196.555 443.6 205.555C422.9 212.355 402.6 210.055 383.3 199.955C380.6 198.555 381 198.455 378.7 200.555C365.8 212.855 353 225.155 340.1 237.455C303.7 272.255 267.3 307.155 230.9 341.955C225.2 347.455 219.5 352.855 213.8 358.255C211.8 360.155 211.8 360.155 213.5 362.255C221.9 372.755 227.4 384.655 229.5 397.955C233.2 420.855 227.9 441.555 213.6 459.755C201 475.655 184.5 485.255 164.5 488.255C121 494.855 83.2 465.255 75.9 425.455C75.4 422.755 75.8 419.855 74.1 417.455C74 413.355 74 409.055 74 404.755ZM100.9 411.055C100.9 438.955 123.1 462.755 152.4 462.855C180.9 462.955 204.1 440.255 204.2 411.355C204.3 382.355 181.1 359.655 152.7 359.555C124.2 359.355 100.9 382.555 100.9 411.055ZM684.7 81.0552C658.3 80.5552 633 101.855 632.9 132.455C632.8 162.655 657.4 184.255 684.4 184.255C713 184.255 736.2 161.255 736.2 132.755C736.3 104.255 713.3 81.1552 684.7 81.0552ZM471.7 131.255C472.1 103.855 449.8 79.5552 420.3 79.4552C390.5 79.3552 368.5 103.855 368.4 130.855C368.3 157.055 389 182.555 419.9 182.655C450.7 182.755 472 157.555 471.7 131.255Z" fill="url(#paint1_linear_13_4)"/>
<path d="M762.5 693.155C762 693.555 762 694.055 762 694.555C761 710.155 754.9 723.855 745.1 735.855C732.2 751.755 715.4 761.155 695.1 763.955C654.8 769.455 617.3 743.255 608.6 703.955C602.5 676.255 609.8 651.955 629.5 631.355C629.8 631.055 630.1 630.755 630.4 630.455C632.1 628.755 632.1 628.655 630.3 627.055C622.4 620.055 614.5 613.055 606.6 606.055C585.5 587.455 564.5 568.855 543.4 550.155C516.7 526.555 490.1 503.055 463.4 479.455C463 479.055 462.5 478.855 462.2 478.455C461.1 477.155 460.1 477.255 458.7 478.155C445.4 486.155 430.9 490.055 415.4 489.155C384.8 487.255 362 472.555 348.4 445.055C326 399.655 353.2 344.955 402.8 334.755C444.9 326.055 486.5 353.255 495.1 395.455C499.5 417.155 495.3 437.355 482.8 455.755C482.5 456.155 482.2 456.655 481.9 457.055C480.3 459.255 480.1 459.055 482.4 461.055C520.5 494.755 558.5 528.355 596.6 562.055C615.1 578.455 633.6 594.755 652.1 611.155C652.6 611.555 653.1 611.955 653.5 612.455C654.8 613.955 656.1 613.955 658 613.355C688.9 603.355 716.5 609.155 740 631.755C751.9 643.255 758.9 657.655 761.7 673.955C762.1 676.155 761.5 678.455 762.5 680.455C762.5 684.555 762.5 688.855 762.5 693.155ZM418.6 359.455C390.1 359.455 366.9 382.555 366.8 410.955C366.7 439.555 390 462.955 418.6 462.755C447.4 462.555 470.1 439.555 470.2 411.055C470.3 382.755 447 359.455 418.6 359.455ZM684.3 738.055C711.7 738.555 736 716.055 736.2 686.755C736.4 658.355 713.3 635.155 685.1 634.855C657.7 634.555 633 656.155 632.9 686.255C632.8 717.055 658 738.455 684.3 738.055Z" fill="url(#paint2_linear_13_4)"/>
<path d="M74 680.355C74.9 679.255 75 677.855 75.2 676.455C79.6 643.555 103.6 617.155 136 610.255C177.4 601.455 214.9 625.855 226.8 662.255C227.9 665.455 228.8 668.755 229.3 672.155C229.5 673.655 230.2 674.155 231.6 674.055C232.2 673.955 232.9 674.055 233.5 674.055C268.2 674.055 303 673.955 337.7 673.955C338.2 673.955 338.8 673.855 339.3 673.955C341.1 674.155 341.6 673.355 342 671.655C343.6 662.955 346.6 654.755 351.2 647.255C364.2 625.855 383 612.855 407.8 609.255C449.5 603.355 487 631.055 495.1 670.555C504.1 714.155 475.6 754.155 434.9 762.855C395.8 771.155 356.6 748.455 344.4 710.355C343.6 707.755 342.8 705.055 342.3 702.355C342 700.655 341.1 700.155 339.5 700.155C314.5 700.255 289.4 700.355 264.4 700.355C253.9 700.355 243.3 700.355 232.8 700.455C229.6 700.455 229.9 699.955 228.9 703.655C220.4 735.955 199.9 756.355 167.2 763.055C124.9 771.755 83.9 743.255 75.9 700.655C75.4 698.055 75.8 695.355 74.1 693.055C74 688.855 74 684.555 74 680.355ZM418.5 738.055C445.5 738.455 470.1 716.455 470.3 686.555C470.5 658.055 447.2 634.855 418.7 634.855C390.1 634.855 367 657.855 366.9 686.355C366.8 714.955 389.9 738.055 418.5 738.055ZM152.4 738.055C179 738.555 204.1 716.955 204.1 686.555C204.2 656.455 179.6 634.755 152.6 634.855C124 634.955 100.9 657.855 100.8 686.355C100.8 714.955 123.9 738.055 152.4 738.055Z" fill="url(#paint3_linear_13_4)"/>
<path d="M279.8 899.655C279.5 899.055 278.9 899.155 278.4 899.055C276.6 898.655 274.8 898.455 273.1 897.955C268.3 896.655 268.3 896.655 268.3 891.755C268.3 890.055 267.6 888.055 268.6 886.755C269.8 885.355 271.8 886.655 273.4 886.755C280.4 887.055 287.4 887.955 294.4 886.955C295.4 886.755 296.5 886.555 297.5 886.255C301 885.155 302.4 883.355 302.7 879.755C302.8 878.255 302.8 876.755 302.7 875.255C302.5 870.955 300.9 868.755 296.8 867.655C292.7 866.455 288.6 865.455 284.5 864.355C282.8 863.855 281 863.455 279.3 862.955C273.7 861.155 270 857.555 268.6 851.655C267.3 846.155 267 840.655 268.4 835.155C270.1 828.355 274.3 823.755 281 821.555C287.2 819.555 293.6 819.855 300 820.555C303.6 820.955 307.1 821.655 310.6 822.655C312.1 823.055 312.7 823.755 312.7 825.355C312.6 827.255 312.7 829.155 312.7 831.155C312.7 833.855 312.6 833.955 310 833.555C304.3 832.755 298.6 832.355 292.8 832.555C290.9 832.655 289 832.755 287.1 833.055C282.9 833.755 281.2 835.655 281 839.955C280.6 846.555 281.7 848.255 288 850.055C292.1 851.255 296.2 852.355 300.3 853.555C302.2 854.155 304.2 854.755 306.1 855.455C311.4 857.455 314.6 861.355 315.5 866.955C316.5 873.355 316.6 879.655 315.4 886.055C314.4 891.755 311.1 895.755 305.6 897.655C303.4 898.455 301.2 898.955 298.9 899.555C292.6 899.655 286.2 899.655 279.8 899.655Z" fill="url(#paint4_linear_13_4)"/>
<path d="M715.2 899.655C714.6 898.455 713.3 898.855 712.4 898.555C705 896.755 699.6 892.455 696.1 885.755C693.2 880.155 691.9 874.155 691.3 867.955C690.5 859.455 690.6 850.955 692.9 842.555C694.4 837.155 696.7 832.155 700.8 828.155C705.7 823.255 711.8 820.855 718.6 820.455C725.7 820.055 732.6 820.755 739.4 822.855C742.2 823.655 742.2 823.755 742.2 826.555C742.2 828.055 742.2 829.555 742.2 831.055C742.2 833.755 742.1 833.755 739.5 833.555C734 833.055 728.4 833.055 722.9 833.155C721.2 833.155 719.5 833.455 717.8 833.855C713.1 835.055 709.7 837.855 707.6 842.355C706.2 845.455 705.4 848.855 705.1 852.255C704.5 859.055 704.5 865.855 706.1 872.555C706.3 873.255 706.5 873.955 706.7 874.655C709.2 882.455 714.2 886.455 722.4 886.855C728 887.155 733.7 887.155 739.3 886.555C742.6 886.255 742.6 886.255 742.6 889.655C742.6 890.855 742.6 891.955 742.6 893.155C742.6 896.255 742.6 896.255 739.5 897.255C736.6 898.155 733.7 898.555 730.7 899.055C730.1 899.155 729.4 898.955 729.1 899.755C724.6 899.655 719.9 899.655 715.2 899.655Z" fill="url(#paint5_linear_13_4)"/>
<path d="M373.9 837.055C373.9 856.255 373.9 874.855 373.9 893.555C373.9 899.055 374.6 898.255 369.2 898.255C367 898.255 364.7 898.155 362.5 898.255C361 898.355 360.4 897.655 360.5 896.155C360.6 895.655 360.5 895.055 360.5 894.555C360.5 871.455 360.5 848.355 360.5 825.255C360.5 824.655 360.5 823.955 360.5 823.355C360.4 822.155 361 821.655 362.2 821.655C368.7 821.655 375.2 821.755 381.7 821.655C383.6 821.655 383.6 822.955 384 824.155C386.4 831.855 388.7 839.655 391.1 847.355C392.8 852.755 394.4 858.155 396.1 863.555C396.4 864.455 396.7 865.355 397 866.355C398.2 865.355 398.2 864.055 398.6 862.855C402.7 850.055 406.7 837.255 410.8 824.555C411.7 821.855 411.7 821.855 414.5 821.755C420.1 821.755 425.8 821.755 431.4 821.755C433.9 821.755 433.9 821.855 433.9 824.155C433.9 824.555 433.9 825.055 433.9 825.455C433.9 848.555 433.9 871.655 433.9 894.755C433.9 898.455 434.1 898.255 430.5 898.255C427.7 898.255 425 898.255 422.2 898.255C421 898.255 420.4 897.755 420.5 896.555C420.5 895.855 420.5 895.055 420.5 894.355C420.5 876.555 420.5 858.755 420.5 840.955C420.5 839.855 420.5 838.655 420.5 837.355C419.4 838.055 419.4 838.955 419.2 839.655C415.4 851.455 411.7 863.155 408 874.955C407.1 877.655 407.1 877.655 404.3 877.655C399.8 877.655 395.4 877.655 390.9 877.655C387.7 877.655 387.6 877.655 386.7 874.655C383 863.255 379.3 851.755 375.6 840.355C375.2 839.355 375.1 838.255 373.9 837.055Z" fill="url(#paint6_linear_13_4)"/>
<path d="M685.4 898.255C681.2 898.255 676.9 898.255 672.5 898.255C671 898.255 670.9 897.155 670.6 896.155C669.1 891.255 667.6 886.355 666.1 881.555C665.9 880.855 665.6 880.155 665.4 879.455C665.1 878.155 664.4 877.755 663.1 877.755C655.9 877.755 648.6 877.755 641.4 877.755C640 877.755 639.4 878.355 639 879.655C637.5 885.055 635.8 890.455 634.2 895.855C633.5 898.255 633.5 898.255 630.9 898.255C627.1 898.255 623.2 898.255 619.5 898.255C618.7 897.255 619.3 896.455 619.6 895.755C627.3 871.955 635 848.155 642.7 824.355C643.7 821.255 643.6 821.655 646.5 821.655C650.4 821.655 654.4 821.655 658.3 821.655C661 821.655 661 821.655 661.8 824.255C666.8 839.655 671.9 854.955 676.9 870.355C679.7 878.855 682.5 887.355 685.2 895.855C685.4 896.455 685.9 897.155 685.4 898.255ZM661.1 865.555C658.1 855.155 655.2 845.455 652.3 835.455C651.4 836.255 651.4 837.055 651.1 837.755C648.7 845.955 646.3 854.055 644 862.255C643.8 862.855 643.6 863.455 643.5 864.055C643.3 864.955 643.7 865.455 644.6 865.455C650 865.555 655.3 865.555 661.1 865.555Z" fill="url(#paint7_linear_13_4)"/>
<path d="M510 859.955C510 848.455 510 836.955 510 825.455C510 824.755 510 823.955 510 823.255C510 822.155 510.5 821.655 511.5 821.755C512.1 821.755 512.8 821.755 513.4 821.755C526.5 821.755 539.6 821.755 552.7 821.755C553.3 821.755 554 821.755 554.6 821.755C555.7 821.655 556.2 822.155 556.2 823.255C556.2 826.455 556.2 829.655 556.2 832.855C556.2 833.955 555.7 834.355 554.6 834.355C553.6 834.355 552.7 834.355 551.7 834.355C543.2 834.355 534.7 834.355 526.1 834.355C523.3 834.355 523.3 834.355 523.2 837.155C523.2 841.755 523.2 846.355 523.2 850.855C523.2 853.555 523.2 853.555 525.8 853.555C532.9 853.555 540.1 853.555 547.2 853.555C551 853.555 550.6 853.355 550.7 856.955C550.7 859.155 550.6 861.455 550.7 863.655C550.8 865.355 550 865.855 548.4 865.755C541.2 865.655 533.9 865.755 526.7 865.755C522.7 865.755 523.2 865.555 523.2 869.455C523.2 874.055 523.2 878.655 523.2 883.155C523.2 885.555 523.3 885.555 525.7 885.555C534.9 885.555 544 885.555 553.2 885.555C553.9 885.555 554.7 885.555 555.4 885.555C556.5 885.555 556.9 886.055 556.9 887.055C556.9 890.255 556.9 893.455 556.9 896.655C556.9 897.755 556.4 898.155 555.3 898.155C554.7 898.155 554 898.155 553.4 898.155C540 898.155 526.6 898.155 513.1 898.155C512.5 898.155 511.8 898.155 511.2 898.155C510.1 898.155 509.7 897.655 509.7 896.555C509.7 895.855 509.7 895.055 509.7 894.355C510 882.955 510 871.455 510 859.955Z" fill="url(#paint8_linear_13_4)"/>
<path d="M570 859.655C570 848.355 570 837.055 570 825.755C570 825.055 570 824.255 570 823.555C569.9 822.255 570.4 821.555 571.8 821.655C572.3 821.655 572.9 821.655 573.4 821.655C586.5 821.655 599.6 821.655 612.7 821.655C613.3 821.655 614 821.655 614.6 821.655C615.7 821.655 616.2 822.055 616.2 823.155C616.2 826.355 616.2 829.555 616.2 832.755C616.2 833.855 615.7 834.255 614.6 834.255C612.7 834.255 610.8 834.255 608.8 834.255C601.2 834.255 593.7 834.255 586.1 834.255C583.4 834.255 583.4 834.255 583.4 836.855C583.4 842.355 583.4 847.955 583.4 853.455C583.4 856.255 583.4 856.255 586.2 856.255C593.9 856.255 601.5 856.255 609.2 856.255C612.1 856.255 612.1 856.255 612.2 859.255C612.2 861.755 612.2 864.155 612.2 866.655C612.2 868.855 612.1 868.955 609.8 868.955C602.6 868.955 595.3 868.955 588.1 868.955C582.8 868.955 583.5 868.155 583.5 873.455C583.5 880.655 583.5 887.955 583.5 895.155C583.5 898.255 583.5 898.255 580.3 898.255C577.7 898.255 575.2 898.255 572.6 898.255C570.1 898.255 570.1 898.155 570 895.555C570 891.755 570 887.855 570 884.055C570 875.855 570 867.755 570 859.655Z" fill="url(#paint9_linear_13_4)"/>
<path d="M478.6 866.255C478.6 875.955 478.6 885.655 478.6 895.355C478.6 898.255 478.6 898.255 475.6 898.255C472.7 898.255 469.8 898.255 467 898.255C465.8 898.255 465.2 897.755 465.3 896.555C465.3 895.855 465.3 895.055 465.3 894.355C465.3 875.855 465.3 857.255 465.3 838.755C465.3 838.055 465.3 837.255 465.3 836.555C465.2 834.255 465.2 834.255 462.9 834.255C457.4 834.255 451.8 834.255 446.3 834.255C442.1 834.255 442.5 834.355 442.5 830.455C442.5 828.155 442.5 825.755 442.5 823.455C442.5 822.255 443 821.655 444.2 821.755C444.8 821.755 445.5 821.755 446.1 821.755C463.4 821.755 480.6 821.755 497.9 821.755C498.3 821.755 498.8 821.755 499.2 821.755C501.6 821.855 501.6 821.855 501.7 824.255C501.7 826.655 501.7 829.155 501.7 831.555C501.7 834.055 501.6 834.155 499 834.155C493.2 834.155 487.5 834.155 481.7 834.155C478.8 834.155 478.7 834.155 478.7 837.155C478.6 846.855 478.6 856.555 478.6 866.255Z" fill="url(#paint10_linear_13_4)"/>
<path d="M329.6 859.955C329.6 848.455 329.6 836.955 329.6 825.455C329.6 824.755 329.6 823.955 329.6 823.255C329.6 822.255 329.9 821.655 331 821.655C334.5 821.655 338 821.655 341.5 821.655C342.4 821.655 342.9 822.055 342.9 822.955C342.9 823.655 342.9 824.455 342.9 825.155C342.9 848.255 342.9 871.355 342.9 894.455C342.9 894.755 342.9 895.055 342.9 895.455C342.9 898.155 342.9 898.155 340.3 898.155C337.5 898.155 334.8 898.155 332 898.155C329.5 898.155 329.5 898.055 329.5 895.655C329.5 891.355 329.5 887.155 329.5 882.855C329.6 875.355 329.6 867.655 329.6 859.955Z" fill="url(#paint11_linear_13_4)"/>
<path d="M75.8005 132.055C75.4005 91.3552 108.3 54.0552 153.8 54.0552C198.3 54.0552 231.9 90.0552 231.9 132.155C231.9 174.055 198.3 210.255 153.8 210.155C108.5 210.055 75.4005 173.055 75.8005 132.055ZM153.6 183.655C179.9 184.055 205.3 163.055 205.4 132.255C205.5 101.155 179.8 80.4552 153.9 80.4552C126.4 80.3552 102.2 102.755 102.1 131.955C102.1 160.455 125.1 183.655 153.6 183.655Z" fill="url(#paint12_linear_13_4)"/>
</g>
<path d="M150.673 835.353V821.334H202.289V832.291C198.028 836.48 193.695 842.496 189.291 850.338C184.887 858.18 181.521 866.523 179.193 875.367C176.902 884.176 175.774 892.053 175.81 899H161.254C161.505 888.115 163.743 877.014 167.968 865.699C172.229 854.384 177.904 844.269 184.994 835.353H150.673Z" fill="url(#paint13_linear_13_4)"/>
<path d="M150.673 835.353V821.334H202.289V832.291C198.028 836.48 193.695 842.496 189.291 850.338C184.887 858.18 181.521 866.523 179.193 875.367C176.902 884.176 175.774 892.053 175.81 899H161.254C161.505 888.115 163.743 877.014 167.968 865.699C172.229 854.384 177.904 844.269 184.994 835.353H150.673Z" fill="url(#paint14_linear_13_4)"/>
<path d="M139.645 884.981V899H86.7393C87.3122 893.701 89.0309 888.688 91.8955 883.961C94.7601 879.199 100.418 872.896 108.868 865.055C115.672 858.717 119.843 854.42 121.383 852.164C123.46 849.049 124.498 845.969 124.498 842.926C124.498 839.56 123.585 836.982 121.759 835.191C119.968 833.365 117.48 832.452 114.293 832.452C111.142 832.452 108.635 833.401 106.773 835.299C104.911 837.197 103.837 840.348 103.551 844.752L88.5117 843.248C89.4069 834.941 92.2178 828.979 96.9443 825.362C101.671 821.746 107.579 819.938 114.669 819.938C122.439 819.938 128.544 822.032 132.984 826.222C137.424 830.411 139.645 835.621 139.645 841.852C139.645 845.396 139 848.78 137.711 852.003C136.458 855.19 134.452 858.538 131.695 862.047C129.869 864.374 126.575 867.722 121.812 872.091C117.05 876.459 114.024 879.36 112.735 880.792C111.482 882.224 110.462 883.621 109.674 884.981H139.645Z" fill="url(#paint15_linear_13_4)"/>
<path d="M139.645 884.981V899H86.7393C87.3122 893.701 89.0309 888.688 91.8955 883.961C94.7601 879.199 100.418 872.896 108.868 865.055C115.672 858.717 119.843 854.42 121.383 852.164C123.46 849.049 124.498 845.969 124.498 842.926C124.498 839.56 123.585 836.982 121.759 835.191C119.968 833.365 117.48 832.452 114.293 832.452C111.142 832.452 108.635 833.401 106.773 835.299C104.911 837.197 103.837 840.348 103.551 844.752L88.5117 843.248C89.4069 834.941 92.2178 828.979 96.9443 825.362C101.671 821.746 107.579 819.938 114.669 819.938C122.439 819.938 128.544 822.032 132.984 826.222C137.424 830.411 139.645 835.621 139.645 841.852C139.645 845.396 139 848.78 137.711 852.003C136.458 855.19 134.452 858.538 131.695 862.047C129.869 864.374 126.575 867.722 121.812 872.091C117.05 876.459 114.024 879.36 112.735 880.792C111.482 882.224 110.462 883.621 109.674 884.981H139.645Z" fill="url(#paint16_linear_13_4)"/>
<path d="M206.396 842.112C206.396 835.739 208.079 830.779 211.445 827.234C214.847 823.689 219.377 821.917 225.034 821.917C230.656 821.917 235.168 823.707 238.569 827.288C241.971 830.833 243.672 835.774 243.672 842.112C243.672 848.45 241.971 853.392 238.569 856.937C235.203 860.481 230.692 862.254 225.034 862.254C219.377 862.254 214.847 860.499 211.445 856.99C208.079 853.445 206.396 848.486 206.396 842.112ZM217.729 842.22C217.729 846.159 218.392 848.969 219.717 850.652C221.042 852.299 222.76 853.123 224.873 853.123C226.986 853.123 228.704 852.299 230.029 850.652C231.39 848.969 232.07 846.159 232.07 842.22C232.07 838.281 231.39 835.488 230.029 833.841C228.704 832.158 226.986 831.316 224.873 831.316C222.76 831.316 221.042 832.14 219.717 833.787C218.392 835.434 217.729 838.245 217.729 842.22Z" fill="url(#paint17_linear_13_4)"/>
<path d="M206.396 842.112C206.396 835.739 208.079 830.779 211.445 827.234C214.847 823.689 219.377 821.917 225.034 821.917C230.656 821.917 235.168 823.707 238.569 827.288C241.971 830.833 243.672 835.774 243.672 842.112C243.672 848.45 241.971 853.392 238.569 856.937C235.203 860.481 230.692 862.254 225.034 862.254C219.377 862.254 214.847 860.499 211.445 856.99C208.079 853.445 206.396 848.486 206.396 842.112ZM217.729 842.22C217.729 846.159 218.392 848.969 219.717 850.652C221.042 852.299 222.76 853.123 224.873 853.123C226.986 853.123 228.704 852.299 230.029 850.652C231.39 848.969 232.07 846.159 232.07 842.22C232.07 838.281 231.39 835.488 230.029 833.841C228.704 832.158 226.986 831.316 224.873 831.316C222.76 831.316 221.042 832.14 219.717 833.787C218.392 835.434 217.729 838.245 217.729 842.22Z" fill="url(#paint18_linear_13_4)"/>
</g>
<defs>
<filter id="filter0_f_13_4" x="114.28" y="-2.62909" width="166.528" height="165.862" filterUnits="userSpaceOnUse" color-interpolation-filters="sRGB">
<feFlood flood-opacity="0" result="BackgroundImageFix"/>
<feBlend mode="normal" in="SourceGraphic" in2="BackgroundImageFix" result="shape"/>
<feGaussianBlur stdDeviation="19.5" result="effect1_foregroundBlur_13_4"/>
</filter>
<radialGradient id="paint0_radial_13_4" cx="0" cy="0" r="1" gradientUnits="userSpaceOnUse" gradientTransform="translate(197.544 80.3018) rotate(44.5484) scale(53.609 31.8448)">
<stop stop-color="white"/>
<stop offset="1" stop-color="#FFD86B"/>
</radialGradient>
<linearGradient id="paint1_linear_13_4" x1="737.9" y1="96.3552" x2="108.9" y2="465.355" gradientUnits="userSpaceOnUse">
<stop stop-color="#FFE38D"/>
<stop offset="0.489583" stop-color="#CC8845"/>
<stop offset="1" stop-color="#FEE48C"/>
</linearGradient>
<linearGradient id="paint2_linear_13_4" x1="361.4" y1="368.855" x2="718.9" y2="745.355" gradientUnits="userSpaceOnUse">
<stop stop-color="#FCE28E"/>
<stop offset="0.473958" stop-color="#B76A34"/>
<stop offset="1" stop-color="#FFE28C"/>
</linearGradient>
<linearGradient id="paint3_linear_13_4" x1="74.4004" y1="699.355" x2="496.4" y2="701.355" gradientUnits="userSpaceOnUse">
<stop offset="0.161458" stop-color="#FFE38D"/>
<stop offset="0.494792" stop-color="#BA6A35"/>
<stop offset="1" stop-color="#FFE28C"/>
</linearGradient>
<linearGradient id="paint4_linear_13_4" x1="316.4" y1="859.355" x2="267.4" y2="873.355" gradientUnits="userSpaceOnUse">
<stop stop-color="#FDDE89"/>
<stop offset="1" stop-color="#BE7039"/>
</linearGradient>
<linearGradient id="paint5_linear_13_4" x1="771.9" y1="846.355" x2="690.4" y2="879.855" gradientUnits="userSpaceOnUse">
<stop stop-color="#FDDE89"/>
<stop offset="1" stop-color="#BE7039"/>
</linearGradient>
<linearGradient id="paint6_linear_13_4" x1="434.4" y1="845.855" x2="360.4" y2="872.855" gradientUnits="userSpaceOnUse">
<stop stop-color="#FDDE89"/>
<stop offset="1" stop-color="#BE7039"/>
</linearGradient>
<linearGradient id="paint7_linear_13_4" x1="681.4" y1="854.355" x2="624.4" y2="887.855" gradientUnits="userSpaceOnUse">
<stop stop-color="#FDDE89"/>
<stop offset="1" stop-color="#BE7039"/>
</linearGradient>
<linearGradient id="paint8_linear_13_4" x1="557.4" y1="854.855" x2="509.4" y2="882.855" gradientUnits="userSpaceOnUse">
<stop stop-color="#FDDE89"/>
<stop offset="1" stop-color="#BE7039"/>
</linearGradient>
<linearGradient id="paint9_linear_13_4" x1="620.9" y1="852.855" x2="570.4" y2="874.355" gradientUnits="userSpaceOnUse">
<stop stop-color="#FDDE89"/>
<stop offset="1" stop-color="#BE7039"/>
</linearGradient>
<linearGradient id="paint10_linear_13_4" x1="501.4" y1="852.355" x2="446.4" y2="863.355" gradientUnits="userSpaceOnUse">
<stop stop-color="#FDDE89"/>
<stop offset="1" stop-color="#BE7039"/>
</linearGradient>
<linearGradient id="paint11_linear_13_4" x1="336.2" y1="821.655" x2="336.2" y2="898.155" gradientUnits="userSpaceOnUse">
<stop stop-color="#FDDE89"/>
<stop offset="1" stop-color="#BE7039"/>
</linearGradient>
<linearGradient id="paint12_linear_13_4" x1="194.9" y1="75.8552" x2="114.9" y2="197.855" gradientUnits="userSpaceOnUse">
<stop stop-color="#FEE48B"/>
<stop offset="1" stop-color="#CB894C"/>
</linearGradient>
<linearGradient id="paint13_linear_13_4" x1="149.613" y1="897" x2="208.846" y2="878.364" gradientUnits="userSpaceOnUse">
<stop stop-color="#BE7039"/>
<stop offset="1" stop-color="#EFC577"/>
</linearGradient>
<linearGradient id="paint14_linear_13_4" x1="149.613" y1="897" x2="208.846" y2="878.364" gradientUnits="userSpaceOnUse">
<stop stop-color="#BE7039"/>
<stop offset="1" stop-color="#EFC577"/>
</linearGradient>
<linearGradient id="paint15_linear_13_4" x1="87.6135" y1="897" x2="146.846" y2="878.364" gradientUnits="userSpaceOnUse">
<stop stop-color="#BE7039"/>
<stop offset="1" stop-color="#EFC577"/>
</linearGradient>
<linearGradient id="paint16_linear_13_4" x1="87.6135" y1="897" x2="146.846" y2="878.364" gradientUnits="userSpaceOnUse">
<stop stop-color="#BE7039"/>
<stop offset="1" stop-color="#EFC577"/>
</linearGradient>
<linearGradient id="paint17_linear_13_4" x1="207.39" y1="900" x2="248.651" y2="891.415" gradientUnits="userSpaceOnUse">
<stop stop-color="#BE7039"/>
<stop offset="1" stop-color="#EFC577"/>
</linearGradient>
<linearGradient id="paint18_linear_13_4" x1="207.39" y1="900" x2="248.651" y2="891.415" gradientUnits="userSpaceOnUse">
<stop stop-color="#BE7039"/>
<stop offset="1" stop-color="#EFC577"/>
</linearGradient>
<clipPath id="clip0_13_4">
<rect width="826" height="914" fill="white"/>
</clipPath>
</defs>
</svg>
