<svg width="229" height="110" viewBox="0 0 229 110" fill="none" xmlns="http://www.w3.org/2000/svg">
<path d="M45.2551 51.204V40.938H17.5021V23.538H47.8651V13.272H5.84414V78H17.5021V51.204H45.2551ZM83.1457 64.341L76.5337 67.908C73.6627 69.474 71.0527 70.17 68.6167 70.17C66.8767 70.17 65.4847 69.735 64.5277 68.865C63.5707 67.995 63.1357 66.69 63.1357 65.037C63.1357 61.035 65.7457 59.034 70.9657 59.034H83.1457V64.341ZM93.4987 78V48.507C93.4987 43.113 91.7587 38.85 88.2787 35.805C84.7987 32.847 80.0137 31.281 73.7497 31.281C67.6597 31.281 62.7877 32.76 59.1337 35.544C55.4797 38.415 53.6527 42.417 53.6527 47.463V48.072H63.9187C63.9187 42.765 67.2247 40.068 73.8367 40.068C80.1007 40.068 83.2327 43.026 83.2327 48.855V51.552H69.5737C64.5277 51.552 60.4387 52.77 57.3067 55.119C54.1747 57.555 52.6087 61.035 52.6087 65.559C52.6087 69.474 53.8267 72.606 56.3497 75.042C58.8727 77.478 62.1787 78.609 66.2677 78.609C70.0957 78.609 74.1847 77.565 78.3607 75.303L83.1457 72.693V78H93.4987ZM130.086 78V68.865H124.692C122.082 68.865 120.168 68.343 118.95 67.212C117.732 66.168 117.123 64.254 117.123 61.644V41.112H129.825V32.151H117.123V19.71H106.335V32.151H99.3753V41.112H106.335V62.253C106.335 67.386 107.814 71.301 110.946 73.998C114.078 76.695 118.341 78 123.822 78H130.086ZM176.087 63.123H165.995C165.995 67.821 162.689 70.17 156.077 70.17C152.945 70.17 150.422 69.387 148.508 67.821C146.594 66.255 145.724 63.906 145.724 60.774V58.512H176.174V50.421C176.174 44.505 174.26 39.894 170.606 36.501C166.952 33.195 162.08 31.455 155.99 31.455C149.987 31.455 145.115 33.195 141.374 36.588C137.546 39.981 135.719 44.505 135.719 50.247V61.122C135.719 66.69 137.546 70.953 141.287 74.085C145.028 77.217 149.9 78.783 155.99 78.783C162.08 78.783 166.952 77.478 170.606 74.694C174.26 71.91 176.087 68.256 176.087 63.558V63.123ZM166.256 51.465H145.724V50.334C145.724 47.115 146.594 44.592 148.421 42.852C150.248 41.112 152.771 40.155 156.077 40.155C159.209 40.155 161.732 41.025 163.559 42.765C165.299 44.505 166.256 47.028 166.256 50.247V51.465ZM224.836 60.513H214.657C214.657 66.603 211.438 69.648 205 69.648C198.649 69.648 195.517 66.429 195.517 59.904V50.334C195.517 43.896 198.649 40.59 205 40.59C211.438 40.59 214.657 43.722 214.657 49.812H224.836V49.029C224.836 43.461 223.009 39.111 219.442 36.066C215.875 33.021 211.09 31.455 205 31.455C198.997 31.455 194.212 33.108 190.645 36.24C186.991 39.459 185.251 43.896 185.251 49.464V60.861C185.251 66.516 186.991 70.953 190.558 74.085C194.125 77.217 198.91 78.783 205 78.783C211.09 78.783 215.875 77.304 219.442 74.259C223.009 71.301 224.836 66.951 224.836 61.296V60.513Z" fill="white"/>
<path d="M119.713 96.472H116.449C116.449 97.816 116.089 98.8 115.417 99.472C114.721 100.144 113.737 100.456 112.465 100.456C109.657 100.456 108.265 98.872 108.265 95.704V92.536C108.265 89.368 109.657 87.784 112.465 87.784C115.105 87.784 116.449 89.128 116.449 91.768H119.713V91.48C119.713 89.416 119.041 87.808 117.745 86.656C116.449 85.528 114.673 84.952 112.441 84.952C110.233 84.952 108.457 85.576 107.089 86.8C105.697 88.024 105.025 89.872 105.025 92.344V95.92C105.025 98.392 105.697 100.24 107.089 101.44C108.481 102.664 110.257 103.264 112.441 103.264C114.673 103.264 116.449 102.712 117.745 101.584C119.041 100.456 119.713 98.848 119.713 96.76V96.472ZM130.433 99.232L128.609 100.216C127.817 100.648 127.097 100.84 126.425 100.84C125.945 100.84 125.561 100.72 125.297 100.48C125.033 100.24 124.913 99.88 124.913 99.424C124.913 98.32 125.633 97.768 127.073 97.768H130.433V99.232ZM133.289 103V94.864C133.289 93.376 132.809 92.2 131.849 91.36C130.889 90.544 129.569 90.112 127.841 90.112C126.161 90.112 124.817 90.52 123.809 91.288C122.801 92.08 122.297 93.184 122.297 94.576V94.744H125.129C125.129 93.28 126.041 92.536 127.865 92.536C129.593 92.536 130.457 93.352 130.457 94.96V95.704H126.689C125.297 95.704 124.169 96.04 123.305 96.688C122.441 97.36 122.009 98.32 122.009 99.568C122.009 100.648 122.345 101.512 123.041 102.184C123.737 102.856 124.649 103.168 125.777 103.168C126.833 103.168 127.961 102.88 129.113 102.256L130.433 101.536V103H133.289ZM143.382 103V100.48H141.894C141.174 100.48 140.646 100.336 140.31 100.024C139.974 99.736 139.806 99.208 139.806 98.488V92.824H143.31V90.352H139.806V86.92H136.83V90.352H134.91V92.824H136.83V98.656C136.83 100.072 137.238 101.152 138.102 101.896C138.966 102.64 140.142 103 141.654 103H143.382ZM153.612 99.232L151.788 100.216C150.996 100.648 150.276 100.84 149.604 100.84C149.124 100.84 148.74 100.72 148.476 100.48C148.212 100.24 148.092 99.88 148.092 99.424C148.092 98.32 148.812 97.768 150.252 97.768H153.612V99.232ZM156.468 103V94.864C156.468 93.376 155.988 92.2 155.028 91.36C154.068 90.544 152.748 90.112 151.02 90.112C149.34 90.112 147.996 90.52 146.988 91.288C145.98 92.08 145.476 93.184 145.476 94.576V94.744H148.308C148.308 93.28 149.22 92.536 151.044 92.536C152.772 92.536 153.636 93.352 153.636 94.96V95.704H149.868C148.476 95.704 147.348 96.04 146.484 96.688C145.62 97.36 145.188 98.32 145.188 99.568C145.188 100.648 145.524 101.512 146.22 102.184C146.916 102.856 147.828 103.168 148.956 103.168C150.012 103.168 151.14 102.88 152.292 102.256L153.612 101.536V103H156.468ZM170.372 103V94.312C170.372 93.088 170.012 92.104 169.292 91.336C168.572 90.592 167.612 90.208 166.388 90.208C165.332 90.256 164.396 90.52 163.58 91.024L162.236 91.84V90.352H159.356V103H162.26V94.48L164.108 93.376C164.732 93.016 165.284 92.824 165.764 92.824C166.292 92.824 166.724 93.016 167.012 93.376C167.3 93.736 167.444 94.168 167.444 94.696V103H170.372ZM181.677 98.968L179.661 100.072C179.037 100.408 178.437 100.576 177.885 100.576C177.261 100.576 176.781 100.408 176.421 100.024C176.061 99.64 175.893 99.136 175.893 98.488V94.888C175.893 94.264 176.061 93.784 176.421 93.4C176.781 93.016 177.261 92.824 177.885 92.824C178.461 92.824 179.061 92.992 179.661 93.304L181.677 94.432V98.968ZM184.533 103V85.144H181.677V91.768L180.237 90.976C179.349 90.496 178.413 90.232 177.453 90.232C176.157 90.232 175.101 90.64 174.285 91.456C173.469 92.272 173.061 93.328 173.061 94.6V98.848C173.061 100.144 173.445 101.2 174.261 101.992C175.053 102.784 176.109 103.168 177.405 103.168C178.413 103.168 179.349 102.928 180.237 102.424L181.701 101.632V103H184.533ZM198.495 103V90.352H195.591V98.896L193.743 99.976C193.119 100.36 192.567 100.528 192.087 100.528C191.559 100.528 191.151 100.36 190.863 100.024C190.551 99.688 190.407 99.256 190.407 98.68V90.352H187.479V99.04C187.479 100.288 187.815 101.272 188.535 102.016C189.255 102.784 190.215 103.144 191.463 103.144C192.447 103.144 193.383 102.88 194.271 102.328L195.615 101.536V103H198.495ZM208.024 103L212.44 90.352H209.392L206.464 99.64L203.536 90.352H200.368L204.736 103H208.024ZM221.769 99.232L219.945 100.216C219.153 100.648 218.433 100.84 217.761 100.84C217.281 100.84 216.897 100.72 216.633 100.48C216.369 100.24 216.249 99.88 216.249 99.424C216.249 98.32 216.969 97.768 218.409 97.768H221.769V99.232ZM224.625 103V94.864C224.625 93.376 224.145 92.2 223.185 91.36C222.225 90.544 220.905 90.112 219.177 90.112C217.497 90.112 216.153 90.52 215.145 91.288C214.137 92.08 213.633 93.184 213.633 94.576V94.744H216.465C216.465 93.28 217.377 92.536 219.201 92.536C220.929 92.536 221.793 93.352 221.793 94.96V95.704H218.025C216.633 95.704 215.505 96.04 214.641 96.688C213.777 97.36 213.345 98.32 213.345 99.568C213.345 100.648 213.681 101.512 214.377 102.184C215.073 102.856 215.985 103.168 217.113 103.168C218.169 103.168 219.297 102.88 220.449 102.256L221.769 101.536V103H224.625Z" fill="#969696"/>
</svg>
