<svg width="512" height="512" viewBox="0 0 512 512" fill="none" xmlns="http://www.w3.org/2000/svg">
<g clip-path="url(#clip0_414_6)">
<path d="M256 511.867C236.816 511.874 217.692 509.735 198.984 505.491C162.931 497.274 129.098 481.307 99.8374 458.699C85.4404 447.587 72.2594 434.984 60.5147 421.099L60.3947 420.957C21.398 374.848 0.0420574 316.389 0.133348 256C0.133348 221.459 6.89868 187.949 20.24 156.405C46.246 95.0715 95.0716 46.246 156.405 20.24C187.949 6.89869 221.459 0.133362 256 0.133362C290.541 0.133362 324.051 6.89869 355.595 20.24C416.929 46.246 465.754 95.0715 491.76 156.405C505.093 187.949 511.867 221.472 511.867 256C511.959 316.191 490.741 374.471 451.973 420.515L451.941 420.552C403.16 478.581 331.733 511.867 256 511.867Z" fill="#7D7D7D"/>
<path d="M256 296C307.547 296 349.333 254.213 349.333 202.667C349.333 151.12 307.547 109.333 256 109.333C204.454 109.333 162.667 151.12 162.667 202.667C162.667 254.213 204.454 296 256 296Z" fill="#E1E1E1"/>
<path d="M452.048 420.632C405.088 476.496 334.688 512 256 512C177.568 512 107.373 476.728 60.4132 421.179L60.2959 421.04C88.7706 359.792 145.117 314.133 213.04 300.328C226.611 306.28 241.271 309.346 256.09 309.333C270.91 309.32 285.564 306.228 299.125 300.253C367.061 313.928 423.467 359.467 452.048 420.632Z" fill="#E1E1E1"/>
</g>
<defs>
<clipPath id="clip0_414_6">
<rect width="512" height="512" fill="white"/>
</clipPath>
</defs>
</svg>
